<svg width="28" height="28" viewBox="0 0 28 28" fill="none" xmlns="http://www.w3.org/2000/svg">
<path d="M16.3334 22.1667C20.7329 22.1667 22.9332 22.1667 24.2994 20.7993C25.6667 19.4332 25.6667 17.2328 25.6667 12.8333C25.6667 8.43383 25.6667 6.2335 24.2994 4.86733C22.9332 3.5 20.7329 3.5 16.3334 3.5H11.6667C7.26721 3.5 5.06687 3.5 3.70071 4.86733C2.33337 6.2335 2.33337 8.43383 2.33337 12.8333C2.33337 17.2328 2.33337 19.4332 3.70071 20.7993C4.46254 21.5623 5.48337 21.8995 7.00004 22.0477" stroke="white" stroke-width="2" stroke-linecap="round" stroke-linejoin="round"/>
<path d="M14 12.8334V13.4167" stroke="white" stroke-width="2" stroke-linecap="round"/>
<path d="M9.33337 12.8334V13.4167" stroke="white" stroke-width="2" stroke-linecap="round"/>
<path d="M18.6667 12.8334V13.4167" stroke="white" stroke-width="2" stroke-linecap="round"/>
<path d="M16.3334 22.1666C14.8914 22.1666 13.3024 22.75 11.8522 23.5025C9.5212 24.7123 8.3557 25.3178 7.7817 24.9316C7.2077 24.5466 7.3162 23.3508 7.53437 20.9603L7.58337 20.4166" stroke="white" stroke-width="2" stroke-linecap="round"/>
</svg>
